<mxfile host="app.diagrams.net" modified="2024-02-26T11:03:18.746Z" agent="Mozilla/5.0 (Windows NT 10.0; Win64; x64) AppleWebKit/537.36 (KHTML, like Gecko) Chrome/121.0.0.0 Safari/537.36" etag="dmDr2WnxHVUNvzDBsJnu" version="23.1.6" type="device">
  <diagram name="Pagina-1" id="cdvw-fGJhAjwr92eGuqH">
    <mxGraphModel dx="1707" dy="1637" grid="1" gridSize="10" guides="1" tooltips="1" connect="1" arrows="1" fold="1" page="1" pageScale="1" pageWidth="827" pageHeight="1169" math="0" shadow="0">
      <root>
        <mxCell id="0" />
        <mxCell id="1" parent="0" />
        <mxCell id="5axnnEzAqOF_N3PDDw29-1" value="Prefixes" style="graphMlID=n0;shape=swimlane;startSize=20;fillColor=#b7b69e;strokeColor=#000000;strokeWidth=1.0;align=right;spacingRight=10;fontStyle=1" parent="1" vertex="1">
          <mxGeometry x="-230" y="-1160" width="769.9964524373497" height="176.09953721049044" as="geometry" />
        </mxCell>
        <mxCell id="5axnnEzAqOF_N3PDDw29-2" value="&lt;b&gt;cbo:&lt;br&gt;owl:&lt;br&gt;dbpedia-owl:&lt;br&gt;ac:&lt;br&gt;actp:&lt;br&gt;ec:&lt;br&gt;st:&lt;br&gt;rdfs:&lt;br&gt;fs:&lt;br&gt;acf:&lt;br&gt;&lt;/b&gt;" style="text;html=1;align=center;verticalAlign=middle;resizable=0;points=[];autosize=1;fontFamily=Courier New;" parent="5axnnEzAqOF_N3PDDw29-1" vertex="1">
          <mxGeometry x="-0.0035475626502687874" y="16.09953721049043" width="110" height="160" as="geometry" />
        </mxCell>
        <mxCell id="5axnnEzAqOF_N3PDDw29-3" value="http://www.semanticweb.org/mguen/ontologies/2024/0/cognitive_bias_ontology_ostrich_effect/&lt;br&gt;http://www.w3.org/2002/07/owl#&lt;br&gt;https://en.wiktionary.org/wiki/&lt;br&gt;http://www.ontology.se/odp/content/owl/Action.owl&lt;br&gt;http://descartes-core.org/ontologies/activities/1.0/ActivityPattern.owl&lt;br&gt;http://krisnadhi.github.io/onto/event.owl&lt;br&gt;http://www.ontologydesignpatterns.org/cp/owl/situation.owl&lt;br&gt;http://www.w3.org/2000/01/rdf-schema#&lt;br&gt;http://etna.istc.cnr.it/framester2/data/framestercore/&lt;br&gt;http://www.ontologydesignpatterns.org/ont/dul/DUL.owl" style="text;html=1;align=left;verticalAlign=middle;resizable=0;points=[];autosize=1;fontFamily=Courier New;" parent="5axnnEzAqOF_N3PDDw29-1" vertex="1">
          <mxGeometry x="99.99645243734973" y="16.099537210490432" width="670" height="160" as="geometry" />
        </mxCell>
        <mxCell id="jWV_-NbMMqejMwwxDnWq-2" value="cbo:Behavior" style="graphMlID=n4;shape=rect;rounded=1;arcsize=30;fillColor=#ffff00;strokeColor=#000000;strokeWidth=1.0" parent="1" vertex="1">
          <mxGeometry x="-437.5" y="-418" width="115" height="40" as="geometry" />
        </mxCell>
        <mxCell id="jWV_-NbMMqejMwwxDnWq-4" value="st:Situation" style="graphMlID=n4;shape=rect;rounded=1;arcsize=30;fillColor=#ffff00;strokeColor=#000000;strokeWidth=1.0" parent="1" vertex="1">
          <mxGeometry x="-420.98" y="-730" width="81.96822102864604" height="44" as="geometry" />
        </mxCell>
        <mxCell id="jWV_-NbMMqejMwwxDnWq-5" value="cbo:CopingStrategy" style="graphMlID=n4;shape=rect;rounded=1;arcsize=30;fillColor=#ffff00;strokeColor=#000000;strokeWidth=1.0" parent="1" vertex="1">
          <mxGeometry x="-165" y="-520" width="120" height="54" as="geometry" />
        </mxCell>
        <mxCell id="jWV_-NbMMqejMwwxDnWq-7" value="fs:Feeling" style="graphMlID=n4;shape=rect;rounded=1;arcsize=30;fillColor=#ffff00;strokeColor=#000000;strokeWidth=1.0" parent="1" vertex="1">
          <mxGeometry x="-420.98" y="-515" width="81.96822102864604" height="44" as="geometry" />
        </mxCell>
        <mxCell id="jWV_-NbMMqejMwwxDnWq-8" value="ec:InformationObject" style="graphMlID=n4;shape=rect;rounded=1;arcsize=30;fillColor=#ffff00;strokeColor=#000000;strokeWidth=1.0" parent="1" vertex="1">
          <mxGeometry x="-171.91" y="-730" width="133" height="44" as="geometry" />
        </mxCell>
        <mxCell id="jWV_-NbMMqejMwwxDnWq-9" value="fs:Information" style="graphMlID=n4;shape=rect;rounded=1;arcsize=30;fillColor=#ffff00;strokeColor=#000000;strokeWidth=1.0" parent="1" vertex="1">
          <mxGeometry x="-440" y="-618" width="120" height="40" as="geometry" />
        </mxCell>
        <mxCell id="jWV_-NbMMqejMwwxDnWq-10" value="actp:Outcome" style="graphMlID=n4;shape=rect;rounded=1;arcsize=30;fillColor=#ffff00;strokeColor=#000000;strokeWidth=1.0" parent="1" vertex="1">
          <mxGeometry x="-145.98000000000002" y="-420" width="81.96822102864604" height="44" as="geometry" />
        </mxCell>
        <mxCell id="jWV_-NbMMqejMwwxDnWq-11" value="acf:SocialAgent" style="graphMlID=n4;shape=rect;rounded=1;arcsize=30;fillColor=#ffff00;strokeColor=#000000;strokeWidth=1.0" parent="1" vertex="1">
          <mxGeometry x="-155.40999999999994" y="-618" width="100" height="40" as="geometry" />
        </mxCell>
        <mxCell id="jWV_-NbMMqejMwwxDnWq-13" value="" style="graphMlID=e0;rounded=0;endArrow=block;strokeColor=#000080;strokeWidth=1.0;startArrow=oval;startFill=1;endFill=1;exitX=0.5;exitY=0;exitDx=0;exitDy=0;entryX=0.5;entryY=1;entryDx=0;entryDy=0;" parent="1" source="jWV_-NbMMqejMwwxDnWq-9" target="jWV_-NbMMqejMwwxDnWq-4" edge="1">
          <mxGeometry relative="1" as="geometry">
            <mxPoint x="-230" y="-689.9181624110126" as="sourcePoint" />
            <mxPoint x="-250" y="-750" as="targetPoint" />
          </mxGeometry>
        </mxCell>
        <mxCell id="jWV_-NbMMqejMwwxDnWq-14" value="&lt;span style=&quot;color: rgb(0 , 0 , 128) ; font-family: &amp;quot;dialog&amp;quot; ; font-size: 16px ; background-color: rgb(248 , 249 , 250)&quot;&gt;st:hasSetting&lt;/span&gt;" style="text;html=1;align=center;verticalAlign=middle;resizable=0;points=[];labelBackgroundColor=#ffffff;" parent="jWV_-NbMMqejMwwxDnWq-13" vertex="1" connectable="0">
          <mxGeometry x="-0.0174" y="2" relative="1" as="geometry">
            <mxPoint as="offset" />
          </mxGeometry>
        </mxCell>
        <mxCell id="jWV_-NbMMqejMwwxDnWq-16" value="" style="graphMlID=e0;rounded=0;endArrow=block;strokeColor=#000080;strokeWidth=1.0;startArrow=oval;startFill=1;endFill=1;exitX=0;exitY=0.5;exitDx=0;exitDy=0;entryX=1;entryY=0.5;entryDx=0;entryDy=0;" parent="1" source="jWV_-NbMMqejMwwxDnWq-11" target="jWV_-NbMMqejMwwxDnWq-9" edge="1">
          <mxGeometry relative="1" as="geometry">
            <mxPoint x="-230" y="-689.9181624110126" as="sourcePoint" />
            <mxPoint x="-79" y="-690" as="targetPoint" />
          </mxGeometry>
        </mxCell>
        <mxCell id="jWV_-NbMMqejMwwxDnWq-17" value="&lt;span style=&quot;color: rgb(0 , 0 , 128) ; font-family: &amp;quot;dialog&amp;quot; ; font-size: 16px ; background-color: rgb(248 , 249 , 250)&quot;&gt;fs:Avoiding&lt;/span&gt;" style="text;html=1;align=center;verticalAlign=middle;resizable=0;points=[];labelBackgroundColor=#ffffff;" parent="jWV_-NbMMqejMwwxDnWq-16" vertex="1" connectable="0">
          <mxGeometry x="-0.0174" y="2" relative="1" as="geometry">
            <mxPoint x="-4" y="1" as="offset" />
          </mxGeometry>
        </mxCell>
        <mxCell id="jWV_-NbMMqejMwwxDnWq-20" value="" style="graphMlID=e0;rounded=0;endArrow=block;strokeColor=#000080;strokeWidth=1.0;startArrow=oval;startFill=1;endFill=1;exitX=0;exitY=0.5;exitDx=0;exitDy=0;entryX=1;entryY=0.5;entryDx=0;entryDy=0;" parent="1" source="jWV_-NbMMqejMwwxDnWq-11" target="jWV_-NbMMqejMwwxDnWq-7" edge="1">
          <mxGeometry relative="1" as="geometry">
            <mxPoint x="-230" y="-689.9181624110126" as="sourcePoint" />
            <mxPoint x="-79" y="-690" as="targetPoint" />
          </mxGeometry>
        </mxCell>
        <mxCell id="jWV_-NbMMqejMwwxDnWq-21" value="&lt;span style=&quot;color: rgb(0 , 0 , 128) ; font-family: &amp;quot;dialog&amp;quot; ; font-size: 16px ; background-color: rgb(248 , 249 , 250)&quot;&gt;fs:Feeling&lt;/span&gt;" style="text;html=1;align=center;verticalAlign=middle;resizable=0;points=[];labelBackgroundColor=#ffffff;" parent="jWV_-NbMMqejMwwxDnWq-20" vertex="1" connectable="0">
          <mxGeometry x="-0.0174" y="2" relative="1" as="geometry">
            <mxPoint as="offset" />
          </mxGeometry>
        </mxCell>
        <mxCell id="jWV_-NbMMqejMwwxDnWq-27" value="" style="graphMlID=e0;rounded=0;endArrow=block;strokeColor=#000080;strokeWidth=1.0;startArrow=oval;startFill=1;endFill=1;entryX=0.5;entryY=0;entryDx=0;entryDy=0;exitX=0.5;exitY=1;exitDx=0;exitDy=0;" parent="1" source="jWV_-NbMMqejMwwxDnWq-7" target="jWV_-NbMMqejMwwxDnWq-2" edge="1">
          <mxGeometry relative="1" as="geometry">
            <mxPoint x="-270.98588948567703" y="-436" as="sourcePoint" />
            <mxPoint x="-130" y="-780" as="targetPoint" />
            <Array as="points" />
          </mxGeometry>
        </mxCell>
        <mxCell id="jWV_-NbMMqejMwwxDnWq-28" value="&lt;span style=&quot;color: rgb(0 , 0 , 128) ; font-family: &amp;quot;dialog&amp;quot; ; font-size: 16px ; background-color: rgb(248 , 249 , 250)&quot;&gt;ac:has_consequence&lt;/span&gt;" style="text;html=1;align=center;verticalAlign=middle;resizable=0;points=[];labelBackgroundColor=#ffffff;" parent="jWV_-NbMMqejMwwxDnWq-27" vertex="1" connectable="0">
          <mxGeometry x="-0.0174" y="2" relative="1" as="geometry">
            <mxPoint as="offset" />
          </mxGeometry>
        </mxCell>
        <mxCell id="jWV_-NbMMqejMwwxDnWq-30" value="" style="graphMlID=e0;rounded=0;endArrow=block;strokeColor=#000080;strokeWidth=1.0;startArrow=oval;startFill=1;endFill=1;entryX=0.5;entryY=1;entryDx=0;entryDy=0;exitX=0.5;exitY=0;exitDx=0;exitDy=0;" parent="1" source="jWV_-NbMMqejMwwxDnWq-11" target="jWV_-NbMMqejMwwxDnWq-8" edge="1">
          <mxGeometry relative="1" as="geometry">
            <mxPoint x="-230" y="-689.9181624110126" as="sourcePoint" />
            <mxPoint x="-79" y="-690" as="targetPoint" />
          </mxGeometry>
        </mxCell>
        <mxCell id="jWV_-NbMMqejMwwxDnWq-31" value="&lt;span style=&quot;color: rgb(0 , 0 , 128) ; font-family: &amp;quot;dialog&amp;quot; ; font-size: 16px ; background-color: rgb(248 , 249 , 250)&quot;&gt;ec:hasInformationObject&lt;/span&gt;" style="text;html=1;align=center;verticalAlign=middle;resizable=0;points=[];labelBackgroundColor=#ffffff;" parent="jWV_-NbMMqejMwwxDnWq-30" vertex="1" connectable="0">
          <mxGeometry x="-0.0174" y="2" relative="1" as="geometry">
            <mxPoint x="-5" y="3" as="offset" />
          </mxGeometry>
        </mxCell>
        <mxCell id="jWV_-NbMMqejMwwxDnWq-32" value="" style="graphMlID=e0;rounded=0;endArrow=block;strokeColor=#000080;strokeWidth=1.0;startArrow=oval;startFill=1;endFill=1;exitX=0.5;exitY=0;exitDx=0;exitDy=0;entryX=0;entryY=0.5;entryDx=0;entryDy=0;" parent="1" source="jWV_-NbMMqejMwwxDnWq-9" target="jWV_-NbMMqejMwwxDnWq-8" edge="1">
          <mxGeometry relative="1" as="geometry">
            <mxPoint x="-230" y="-689.9181624110126" as="sourcePoint" />
            <mxPoint x="-79" y="-690" as="targetPoint" />
          </mxGeometry>
        </mxCell>
        <mxCell id="jWV_-NbMMqejMwwxDnWq-33" value="&lt;span style=&quot;color: rgb(0 , 0 , 128) ; font-family: &amp;quot;dialog&amp;quot; ; font-size: 16px ; background-color: rgb(248 , 249 , 250)&quot;&gt;rdfs:subClassOf&lt;/span&gt;" style="text;html=1;align=center;verticalAlign=middle;resizable=0;points=[];labelBackgroundColor=#ffffff;" parent="jWV_-NbMMqejMwwxDnWq-32" vertex="1" connectable="0">
          <mxGeometry x="-0.0174" y="2" relative="1" as="geometry">
            <mxPoint x="2" y="2" as="offset" />
          </mxGeometry>
        </mxCell>
        <mxCell id="jWV_-NbMMqejMwwxDnWq-37" value="" style="graphMlID=e0;rounded=0;endArrow=block;strokeColor=#000080;strokeWidth=1.0;startArrow=oval;startFill=1;endFill=1;exitX=0.5;exitY=1;exitDx=0;exitDy=0;entryX=0.5;entryY=0;entryDx=0;entryDy=0;" parent="1" source="jWV_-NbMMqejMwwxDnWq-11" target="jWV_-NbMMqejMwwxDnWq-5" edge="1">
          <mxGeometry relative="1" as="geometry">
            <mxPoint x="-230" y="-689.9181624110126" as="sourcePoint" />
            <mxPoint x="-79" y="-690" as="targetPoint" />
          </mxGeometry>
        </mxCell>
        <mxCell id="jWV_-NbMMqejMwwxDnWq-38" value="&lt;span style=&quot;color: rgb(0 , 0 , 128) ; font-family: &amp;quot;dialog&amp;quot; ; font-size: 16px ; background-color: rgb(248 , 249 , 250)&quot;&gt;fs:uses&lt;/span&gt;" style="text;html=1;align=center;verticalAlign=middle;resizable=0;points=[];labelBackgroundColor=#ffffff;" parent="jWV_-NbMMqejMwwxDnWq-37" vertex="1" connectable="0">
          <mxGeometry x="-0.0174" y="2" relative="1" as="geometry">
            <mxPoint as="offset" />
          </mxGeometry>
        </mxCell>
        <mxCell id="jWV_-NbMMqejMwwxDnWq-42" value="" style="graphMlID=e0;rounded=0;endArrow=block;strokeColor=#000080;strokeWidth=1.0;startArrow=oval;startFill=1;endFill=1;exitX=0.5;exitY=0;exitDx=0;exitDy=0;entryX=0.5;entryY=1;entryDx=0;entryDy=0;" parent="1" source="jWV_-NbMMqejMwwxDnWq-10" target="jWV_-NbMMqejMwwxDnWq-5" edge="1">
          <mxGeometry relative="1" as="geometry">
            <mxPoint x="-230" y="-689.9181624110126" as="sourcePoint" />
            <mxPoint x="-79" y="-690" as="targetPoint" />
          </mxGeometry>
        </mxCell>
        <mxCell id="jWV_-NbMMqejMwwxDnWq-43" value="&lt;span style=&quot;color: rgb(0 , 0 , 128) ; font-family: &amp;quot;dialog&amp;quot; ; font-size: 16px ; background-color: rgb(248 , 249 , 250)&quot;&gt;ac:hasConsequence&lt;/span&gt;" style="text;html=1;align=center;verticalAlign=middle;resizable=0;points=[];labelBackgroundColor=#ffffff;" parent="jWV_-NbMMqejMwwxDnWq-42" vertex="1" connectable="0">
          <mxGeometry x="-0.0174" y="2" relative="1" as="geometry">
            <mxPoint x="15" y="3" as="offset" />
          </mxGeometry>
        </mxCell>
        <mxCell id="y8tdTfFBBmeGGs7g5vYR-1" value="xsd:boolean" style="graphMlID=n6;shape=parallelogram;fillColor=#ccffcc;strokeColor=#000000;strokeWidth=1.0" parent="1" vertex="1">
          <mxGeometry x="-680" y="-729" width="126.0949682107173" height="43" as="geometry" />
        </mxCell>
        <mxCell id="y8tdTfFBBmeGGs7g5vYR-4" value="" style="graphMlID=e2;rounded=0;endArrow=block;strokeColor=#008000;strokeWidth=1.0;startArrow=oval;startFill=0;endFill=0;exitX=0;exitY=0.5;exitDx=0;exitDy=0;entryX=1;entryY=0.5;entryDx=0;entryDy=0;" parent="1" source="jWV_-NbMMqejMwwxDnWq-4" target="y8tdTfFBBmeGGs7g5vYR-1" edge="1">
          <mxGeometry relative="1" as="geometry">
            <mxPoint x="-245" y="-440" as="sourcePoint" />
            <mxPoint x="-28" y="-330" as="targetPoint" />
          </mxGeometry>
        </mxCell>
        <mxCell id="y8tdTfFBBmeGGs7g5vYR-5" value="&lt;span style=&quot;color: rgb(0 , 128 , 0) ; font-family: &amp;quot;dialog&amp;quot; ; font-size: 16px ; background-color: rgb(248 , 249 , 250)&quot;&gt;cbo:isStressful&lt;/span&gt;" style="text;html=1;align=center;verticalAlign=middle;resizable=0;points=[];labelBackgroundColor=#ffffff;" parent="y8tdTfFBBmeGGs7g5vYR-4" vertex="1" connectable="0">
          <mxGeometry x="-0.0896" y="3" relative="1" as="geometry">
            <mxPoint as="offset" />
          </mxGeometry>
        </mxCell>
        <mxCell id="8PJPfNY07t43NJ5hW8Hc-6" value="" style="graphMlID=e2;rounded=0;endArrow=block;strokeColor=#008000;strokeWidth=1.0;startArrow=oval;startFill=0;endFill=0;fontSize=12;startSize=8;endSize=8;exitX=0;exitY=0.5;exitDx=0;exitDy=0;" parent="1" source="jWV_-NbMMqejMwwxDnWq-7" target="8PJPfNY07t43NJ5hW8Hc-8" edge="1">
          <mxGeometry relative="1" as="geometry">
            <mxPoint x="-180" y="-470" as="sourcePoint" />
            <mxPoint x="-360" y="-660" as="targetPoint" />
          </mxGeometry>
        </mxCell>
        <mxCell id="8PJPfNY07t43NJ5hW8Hc-7" value="&lt;span style=&quot;color: rgb(0 , 128 , 0) ; font-family: &amp;quot;dialog&amp;quot; ; font-size: 16px ; background-color: rgb(248 , 249 , 250)&quot;&gt;cbo:isPositive&lt;/span&gt;" style="text;html=1;align=center;verticalAlign=middle;resizable=0;points=[];labelBackgroundColor=#ffffff;" parent="8PJPfNY07t43NJ5hW8Hc-6" vertex="1" connectable="0">
          <mxGeometry x="-0.0896" y="3" relative="1" as="geometry">
            <mxPoint as="offset" />
          </mxGeometry>
        </mxCell>
        <mxCell id="8PJPfNY07t43NJ5hW8Hc-8" value="xsd:boolean" style="graphMlID=n6;shape=parallelogram;fillColor=#ccffcc;strokeColor=#000000;strokeWidth=1.0" parent="1" vertex="1">
          <mxGeometry x="-679.9974841053587" y="-515" width="126.0949682107173" height="43" as="geometry" />
        </mxCell>
        <mxCell id="8PJPfNY07t43NJ5hW8Hc-10" value="" style="graphMlID=e0;rounded=0;endArrow=block;strokeColor=#000080;strokeWidth=1.0;startArrow=oval;startFill=1;endFill=1;fontSize=12;startSize=8;endSize=8;exitX=1;exitY=0.5;exitDx=0;exitDy=0;entryX=0;entryY=0.5;entryDx=0;entryDy=0;" parent="1" source="jWV_-NbMMqejMwwxDnWq-2" target="jWV_-NbMMqejMwwxDnWq-10" edge="1">
          <mxGeometry relative="1" as="geometry">
            <mxPoint x="-120" y="-469.91816241101264" as="sourcePoint" />
            <mxPoint x="31" y="-470" as="targetPoint" />
          </mxGeometry>
        </mxCell>
        <mxCell id="8PJPfNY07t43NJ5hW8Hc-11" value="&lt;span style=&quot;color: rgb(0 , 0 , 128) ; font-family: &amp;quot;dialog&amp;quot; ; font-size: 16px ; background-color: rgb(248 , 249 , 250)&quot;&gt;actp:produces&lt;/span&gt;" style="text;html=1;align=center;verticalAlign=middle;resizable=0;points=[];labelBackgroundColor=#ffffff;" parent="8PJPfNY07t43NJ5hW8Hc-10" vertex="1" connectable="0">
          <mxGeometry x="-0.0174" y="2" relative="1" as="geometry">
            <mxPoint as="offset" />
          </mxGeometry>
        </mxCell>
        <mxCell id="8PJPfNY07t43NJ5hW8Hc-15" value="" style="graphMlID=e2;rounded=0;endArrow=block;strokeColor=#008000;strokeWidth=1.0;startArrow=oval;startFill=0;endFill=0;fontSize=12;startSize=8;endSize=8;exitX=0.5;exitY=1;exitDx=0;exitDy=0;" parent="1" source="jWV_-NbMMqejMwwxDnWq-10" target="8PJPfNY07t43NJ5hW8Hc-17" edge="1">
          <mxGeometry relative="1" as="geometry">
            <mxPoint x="-180" y="-470" as="sourcePoint" />
            <mxPoint x="-105" y="-320" as="targetPoint" />
          </mxGeometry>
        </mxCell>
        <mxCell id="8PJPfNY07t43NJ5hW8Hc-16" value="&lt;span style=&quot;color: rgb(0 , 128 , 0) ; font-family: &amp;quot;dialog&amp;quot; ; font-size: 16px ; background-color: rgb(248 , 249 , 250)&quot;&gt;cbo:isPositive&lt;/span&gt;" style="text;html=1;align=center;verticalAlign=middle;resizable=0;points=[];labelBackgroundColor=#ffffff;" parent="8PJPfNY07t43NJ5hW8Hc-15" vertex="1" connectable="0">
          <mxGeometry x="-0.0896" y="3" relative="1" as="geometry">
            <mxPoint as="offset" />
          </mxGeometry>
        </mxCell>
        <mxCell id="8PJPfNY07t43NJ5hW8Hc-17" value="xsd:boolean" style="graphMlID=n6;shape=parallelogram;fillColor=#ccffcc;strokeColor=#000000;strokeWidth=1.0" parent="1" vertex="1">
          <mxGeometry x="-168.04748410535865" y="-330" width="126.0949682107173" height="43" as="geometry" />
        </mxCell>
        <mxCell id="8PJPfNY07t43NJ5hW8Hc-18" value="" style="graphMlID=e2;rounded=0;endArrow=block;strokeColor=#008000;strokeWidth=1.0;startArrow=oval;startFill=0;endFill=0;fontSize=12;startSize=8;endSize=8;exitX=0.5;exitY=1;exitDx=0;exitDy=0;" parent="1" source="jWV_-NbMMqejMwwxDnWq-2" target="8PJPfNY07t43NJ5hW8Hc-20" edge="1">
          <mxGeometry relative="1" as="geometry">
            <mxPoint x="-180" y="-520" as="sourcePoint" />
            <mxPoint x="-380" y="-310" as="targetPoint" />
          </mxGeometry>
        </mxCell>
        <mxCell id="8PJPfNY07t43NJ5hW8Hc-19" value="&lt;span style=&quot;color: rgb(0 , 128 , 0) ; font-family: &amp;quot;dialog&amp;quot; ; font-size: 16px ; background-color: rgb(248 , 249 , 250)&quot;&gt;cbo:isConfrontational&lt;/span&gt;" style="text;html=1;align=center;verticalAlign=middle;resizable=0;points=[];labelBackgroundColor=#ffffff;" parent="8PJPfNY07t43NJ5hW8Hc-18" vertex="1" connectable="0">
          <mxGeometry x="-0.0896" y="3" relative="1" as="geometry">
            <mxPoint as="offset" />
          </mxGeometry>
        </mxCell>
        <mxCell id="8PJPfNY07t43NJ5hW8Hc-20" value="xsd:boolean" style="graphMlID=n6;shape=parallelogram;fillColor=#ccffcc;strokeColor=#000000;strokeWidth=1.0" parent="1" vertex="1">
          <mxGeometry x="-443.04748410535865" y="-331.5" width="126.0949682107173" height="43" as="geometry" />
        </mxCell>
        <mxCell id="8PJPfNY07t43NJ5hW8Hc-21" value="" style="graphMlID=e0;rounded=0;endArrow=block;strokeColor=#000080;strokeWidth=1.0;startArrow=oval;startFill=1;endFill=1;fontSize=12;startSize=8;endSize=8;exitX=0.5;exitY=1;exitDx=0;exitDy=0;entryX=0.5;entryY=0;entryDx=0;entryDy=0;" parent="1" source="jWV_-NbMMqejMwwxDnWq-9" target="jWV_-NbMMqejMwwxDnWq-7" edge="1">
          <mxGeometry relative="1" as="geometry">
            <mxPoint x="-170" y="-539.9181624110126" as="sourcePoint" />
            <mxPoint x="-19" y="-540" as="targetPoint" />
          </mxGeometry>
        </mxCell>
        <mxCell id="8PJPfNY07t43NJ5hW8Hc-22" value="&lt;font face=&quot;dialog&quot; color=&quot;#000080&quot;&gt;&lt;span style=&quot;font-size: 16px; background-color: rgb(248, 249, 250);&quot;&gt;ac:has_consequence&lt;/span&gt;&lt;/font&gt;" style="text;html=1;align=center;verticalAlign=middle;resizable=0;points=[];labelBackgroundColor=#ffffff;" parent="8PJPfNY07t43NJ5hW8Hc-21" vertex="1" connectable="0">
          <mxGeometry x="-0.0174" y="2" relative="1" as="geometry">
            <mxPoint as="offset" />
          </mxGeometry>
        </mxCell>
        <mxCell id="24WxFaeNCEhH4js4shkU-1" value="" style="graphMlID=e2;rounded=0;endArrow=block;strokeColor=#008000;strokeWidth=1.0;startArrow=oval;startFill=0;endFill=0;exitX=0;exitY=0.5;exitDx=0;exitDy=0;" edge="1" parent="1" source="jWV_-NbMMqejMwwxDnWq-9" target="24WxFaeNCEhH4js4shkU-3">
          <mxGeometry relative="1" as="geometry">
            <mxPoint x="-640" y="-600" as="sourcePoint" />
            <mxPoint x="-590" y="-590" as="targetPoint" />
          </mxGeometry>
        </mxCell>
        <mxCell id="24WxFaeNCEhH4js4shkU-2" value="&lt;span style=&quot;color: rgb(0 , 128 , 0) ; font-family: &amp;quot;dialog&amp;quot; ; font-size: 16px ; background-color: rgb(248 , 249 , 250)&quot;&gt;cbo:isNegative&lt;/span&gt;" style="text;html=1;align=center;verticalAlign=middle;resizable=0;points=[];labelBackgroundColor=#ffffff;" vertex="1" connectable="0" parent="24WxFaeNCEhH4js4shkU-1">
          <mxGeometry x="-0.0896" y="3" relative="1" as="geometry">
            <mxPoint as="offset" />
          </mxGeometry>
        </mxCell>
        <mxCell id="24WxFaeNCEhH4js4shkU-3" value="xsd:boolean" style="graphMlID=n6;shape=parallelogram;fillColor=#ccffcc;strokeColor=#000000;strokeWidth=1.0" vertex="1" parent="1">
          <mxGeometry x="-689.9974841053587" y="-618" width="126.0949682107173" height="43" as="geometry" />
        </mxCell>
      </root>
    </mxGraphModel>
  </diagram>
</mxfile>
